<svg width="16" height="16" viewBox="0 0 1024 1024" xmlns="http://www.w3.org/2000/svg">
  <defs>
    <linearGradient id="bg" x1="0" y1="0" x2="1" y2="1">
      <stop offset="0%" stop-color="#236b51"/>
      <stop offset="100%" stop-color="#123c2d"/>
    </linearGradient>
  </defs>
  <rect width="1024" height="1024" rx="232" fill="url(#bg)"/>
  <g fill="#f5f2ea">
    <path d="M497 780 C 497 626 499 474 512 336 C 525 474 527 626 527 780 Z"/>
    <g transform="translate(512 640) rotate(-32)"><path d="M0 0 C 66 -62 156 -62 224 0 C 156 62 66 62 0 0 Z"/></g>
    <g transform="translate(512 640) rotate(-148)"><path d="M0 0 C 66 -62 156 -62 224 0 C 156 62 66 62 0 0 Z"/></g>
    <g transform="translate(512 524) rotate(-30) scale(0.82)"><path d="M0 0 C 66 -62 156 -62 224 0 C 156 62 66 62 0 0 Z"/></g>
    <g transform="translate(512 524) rotate(-150) scale(0.82)"><path d="M0 0 C 66 -62 156 -62 224 0 C 156 62 66 62 0 0 Z"/></g>
  </g>
  <circle cx="512" cy="330" r="44" fill="#b9863a"/>
</svg>
